<svg xmlns="http://www.w3.org/2000/svg" viewBox="0 0 143.86 136.72"><defs><style>.cls-1{}</style></defs><g id="Layer_2" data-name="Layer 2"><g id="Layer_1-2" data-name="Layer 1"><path class="cls-1" d="M54.52,0,94.8,13.47l3-5.26a20.09,20.09,0,0,1,2.3-3.52A2.16,2.16,0,0,1,101.66,4a2,2,0,0,1,1.49.62,2,2,0,0,1,.58,1.41q0,1.28-2.21,5l-19.47,33,15.47-1a60.12,60.12,0,0,1,16.2,2,46,46,0,0,1,15.9,6.92A36.19,36.19,0,0,1,140.07,63a27,27,0,0,1,3.79,14.07q0,14.1-11.82,27.72T90,133.5q-10.64-3.93-24.74-8.28-25.14,11.5-41.3,11.5-11.52,0-17.72-5.05T0,120q0-7,7.5-12.9t22.24-5.85a89.94,89.94,0,0,1,14.36,1.42l7.28-12.8-13.07,1a67.9,67.9,0,0,1-12.5-1.3A36.33,36.33,0,0,1,12.9,85.1a20.81,20.81,0,0,1-7.54-7.68,19.52,19.52,0,0,1-2.5-9.55A20.33,20.33,0,0,1,8.48,53.76Q12,49.83,20.27,46.7l-.09-1.07q0-8.3,7.38-19.06T54.52,0ZM59,123.14q-22.23-7.44-36.42-7.41-7.34,0-11.61,3.22a6.33,6.33,0,0,0-3,5.27A6,6,0,0,0,11,129.48q4.65,3.22,13.49,3.22Q38,132.7,59,123.14Zm9-62.47a158.88,158.88,0,0,1-22.53,1.66q-12.14,0-17.23-2.86a17.38,17.38,0,0,1-7.59-8.93Q14.2,54.65,14.2,60.72q0,5.55,5,9.11,6.6,4.65,22.59,4.65a171.87,171.87,0,0,0,19.12-1.36ZM86.69,27.75q-14-7-21.84-9.31A48.57,48.57,0,0,0,51,16.07q-8.37,0-13.63,4.74a14.45,14.45,0,0,0-5.26,11.07,13.13,13.13,0,0,0,4.51,10.27q4.5,4,13.62,4,6,0,27-1.79ZM48.16,103.48q8.43,1.86,13.74,3.43t18.93,6.29q21.61-9.86,21.6-19.06A6.92,6.92,0,0,0,99.9,89a9.09,9.09,0,0,0-6.41-2.33,103.52,103.52,0,0,0-11.78.83q-19.47,2.07-25.58,2.07Zm17.52-30.7Q87,70.67,95.29,70.67q11.34,0,17.32,5.15t6,12.29q0,6.27-5.85,12.17T87.62,115l18.16,4.78q11.72-7.23,18.07-15.63a30,30,0,0,0,6.35-18.49,24.28,24.28,0,0,0-4-13q-4-6.39-12.22-10.18a45,45,0,0,0-19-3.8,190.4,190.4,0,0,0-22.21,1.65Z"/></g></g></svg>